<svg height="496pt" viewBox="0 0 496 496.76" width="496pt" xmlns="http://www.w3.org/2000/svg">
<defs>
    <linearGradient id="grad1" x1="0%" y1="0%" x2="0%" y2="100%">
      <stop offset="0%" style="stop-color:#76ff03;stop-opacity:1" />
      <stop offset="100%" style="stop-color:#00e5ff;stop-opacity:1" />
    </linearGradient>
</defs>
<g fill="url(#grad1)">
    <path d="m207.4375 88.761719 20 40h41.886719l20-40-20-40h-41.886719zm52-24 12 24-12 24h-22.113281l-12-24 12-24zm0 0"/>
    <path d="m328.378906 48.761719v-13.195313l-80-35.566406-80 35.566406v13.195313h-168v8c0 22.054687 17.945313 40 40 40h43.769532l-49 112h-29.863282l21.335938 64h155.527344l21.335937-64h-29.871094l-49-112h49.789063c7.625 24.167969 22.234375 45.613281 41.976562 61.613281v258.386719h-40c-13.230468 0-24 10.765625-24 24v8h-8c-13.230468 0-24 10.765625-24 24v8h-88v16h432v-16h-88v-8c0-13.234375-10.765625-24-24-24h-8v-8c0-13.234375-10.765625-24-24-24h-40v-258.386719c19.746094-15.992188 34.359375-37.445312 41.976563-61.613281h49.792969l-49 112h-29.871094l21.335937 64h155.527344l21.335937-64h-29.871093l-49-112h43.773437c22.058594 0 40-17.945313 40-40v-8zm-157.765625 208h-132.464843l-10.664063-32h153.808594zm-14.464843-48h-103.535157l49-112h5.542969zm-115.769532-128c-10.429687 0-19.328125-6.691407-22.632812-16h150.882812c.285156 5.40625.917969 10.742187 1.863282 16zm320 392v8h-224v-8c0-4.417969 3.59375-8 8-8h208c4.410156 0 8 3.582031 8 8zm-32-32v8h-160v-8c0-4.417969 3.59375-8 8-8h144c4.410156 0 8 3.582031 8 8zm-64-24h-32v-247.320313c4.113282 2.40625 8.328125 4.671875 12.753906 6.636719l3.246094 1.441406 3.25-1.449219c4.414063-1.964843 8.640625-4.230468 12.75-6.628906zm48-358.792969c0 43.503906-25 83.144531-64 101.976562-39-18.832031-64-58.472656-64-101.976562v-12.015625l64-28.441406 64 28.441406zm146.234375 198.792969h-132.464843l-10.664063-32h153.808594zm-14.464843-48h-103.535157l49-112h5.542969zm12.230468-128h-130.109375c.941407-5.257813 1.574219-10.59375 1.863281-16h150.878907c-3.304688 9.308593-12.199219 16-22.632813 16zm0 0"/>
    <path d="m.378906 480.761719h16v16h-16zm0 0"/>
    <path d="m480.378906 480.761719h16v16h-16zm0 0"/>
</g>
</svg>