<svg height="512pt" viewBox="0 0 512 512.002" width="512pt" xmlns="http://www.w3.org/2000/svg">
<defs>
    <linearGradient id="grad1" x1="0%" y1="0%" x2="0%" y2="100%">
      <stop offset="0%" style="stop-color:#76ff03;stop-opacity:1" />
      <stop offset="100%" style="stop-color:#00e5ff;stop-opacity:1" />
    </linearGradient>
</defs>
<g fill="url(#grad1)">
<path d="m511.566406 334.589844c-12.445312-40.898438-26.246094-73.222656-42.1875-98.820313-32.339844-51.9375-75.195312-78.269531-127.378906-78.269531-3.335938 0-6.671875.105469-10 .296875v-29.953125c48.917969 1.917969 74.109375 11.375 74.363281 11.46875 2.539063.996094 5.375.90625 7.851563-.246094 2.472656-1.148437 4.371094-3.257812 5.25-5.839844l27.722656-81.3125c1.398438-4.101562-.003906-8.636718-3.476562-11.234374-37.605469-28.132813-82.234376-40.679688-144.710938-40.679688-56.253906 0-113.851562 22.257812-158.019531 61.066406-22.160157 19.46875-39.683594 41.878906-52.078125 66.601563-13.207032 26.34375-19.902344 54.042969-19.902344 82.332031 0 65.972656-11.050781 117.910156-66.070312 172.929688-2.8593755 2.859374-3.714844 7.160156-2.167969 10.898437 1.550781 3.734375 5.195312 6.171875 9.238281 6.171875 41.914062 0 74.964844-10.222656 98.234375-30.378906 16.574219-14.355469 28.300781-33.75 35.855469-59.285156.054687-.1875.105468-.378907.148437-.570313.316407-1.34375.632813-2.667969.953125-3.996094l36.917969 10.476563c.585937 25.546875 3.65625 52.601562 8.476563 73.933594 7.59375 33.597656 18.675781 49.929687 33.871093 49.929687 21.800781 0 36.007813-8.164063 47.429688-14.722656 7.664062-4.40625 13.722656-7.886719 20.035156-7.886719 1.394531.101562 15.554687 2.597656 81.65625 58 21.726563 18.203125 39.0625 33.78125 39.234375 33.9375 1.871094 1.683594 4.261719 2.5625 6.6875 2.566406 5.421875 0 10-4.605468 10-10v-173.003906c0-5.523438-4.476562-10-10-10h-14c-2.0625 0-50.5-.335938-50.5-29.5 0-16.542969 13.457031-30 30-30 24.0625 0 79.984375 51.957031 109.578125 84.703125 3.144531 3.476563 8.273437 4.304687 12.347656 2 4.074219-2.308594 6.003907-7.132813 4.640625-11.613281zm-435.652344-28.578125c9.050782-26.8125 13.085938-56.425781 13.085938-96.011719 0-99.4375 100.09375-190 210-190 54.574219 0 94.089844 10.0625 126.859375 32.492188l-22.183594 65.066406c-6.238281-1.699219-15.402343-3.824219-27.472656-5.683594l8.652344-50.175781c.9375-5.441407-2.714844-10.613281-8.15625-11.554688-5.4375-.933593-10.613281 2.714844-11.554688 8.15625l-8.8125 51.113281c-7.117187-.679687-14.894531-1.222656-23.332031-1.554687v-56.859375c0-5.523438-4.476562-10-10-10-5.519531 0-10 4.476562-10 10v56.609375c-9.308594 1.015625-18.238281 2.449219-26.800781 4.304687l-9.324219-58.488281c-.867188-5.453125-5.992188-9.171875-11.449219-8.300781-5.453125.871094-9.167969 5.996094-8.300781 11.449219l9.644531 60.480469c-7.777343 2.453124-15.222656 5.300781-22.332031 8.566406l-27.523438-54.148438c-2.5-4.925781-8.519531-6.886718-13.441406-4.386718-4.925781 2.503906-6.890625 8.523437-4.386718 13.445312l27.679687 54.464844c-7.058594 4.28125-13.75 9.042968-20.089844 14.292968l-38.28125-42.023437c-3.722656-4.082031-10.042969-4.375-14.128906-.65625-4.082031 3.71875-4.375 10.042969-.65625 14.125l38.433594 42.191406c-.226563.234375-.453125.460938-.675781.695313-4.863282 5.132812-9.503907 10.652344-13.9375 16.5625l-40.988282-26.574219c-4.636718-3.003906-10.828125-1.679687-13.832031 2.953125s-1.683594 10.824219 2.953125 13.828125l40.632812 26.34375c-3.5 5.691406-6.851562 11.6875-10.050781 17.988281l-32.375-9.332031c-5.304687-1.53125-10.851562 1.535156-12.378906 6.839844-1.527344 5.308593 1.535156 10.851562 6.839844 12.378906l29.386719 8.464844c-3.285157 7.714843-6.378907 15.828125-9.300782 24.339843l-19.671875-3.277343c-5.445312-.90625-10.601562 2.769531-11.507812 8.21875-.910157 5.449219 2.769531 10.601562 8.21875 11.507812l16.859375 2.8125c-2.21875 7.601563-4.316406 15.503907-6.292969 23.6875l-13.707031-3.113281c-5.382813-1.222656-10.742188 2.148438-11.964844 7.535156-1.226562 5.386719 2.148438 10.742188 7.535156 11.96875l11.917969 2.707032c-3.160156 7.554687-7.277344 15.242187-12.871094 22.492187l-8.601562-4.015625c-5.007813-2.332031-10.957031-.171875-13.292969 4.832031-2.335938 5.007813-.171875 10.957031 4.832031 13.292969l2.089844.972656c-13.371094 10.46875-31.855469 18.554688-57.816406 21.621094 19.398437-22.945312 33.171875-46.882812 41.871093-72.644531zm106.515626-10.464844-32.199219-9.136719c28.253906-100.3125 77.625-148.324218 161.769531-158.550781v32.226563c-29.074219 5.015624-56.566406 17.167968-78.269531 35-21.925781 18.011718-47.742188 49.71875-51.300781 100.460937zm84.320312 109.761719c-1.75-2.839844-3.894531-6.964844-6.082031-12.769532-4.546875-12.117187-10.027344-34.070312-10.296875-69.800781-.042969-5.46875-4.53125-9.917969-10-9.917969h-.070313c-5.476562 0-9.972656 4.625-9.929687 10.070313.140625 17.871094 1.519531 34.210937 4.097656 48.570313 2.101562 11.71875 5.019531 22.210937 8.671875 31.167968 2.015625 4.960938 4.070313 8.96875 5.972656 12.171875-6.886719 3.058594-14.667969 5.292969-24.539062 5.308594-2.117188-.792969-9.199219-9.210937-15.191407-37.597656-4.621093-21.894531-7.382812-49.933594-7.382812-75.011719 0-84.4375 72.132812-130 140-130 28.972656 0 54.15625 9.15625 76.078125 27.796875-.082031-.035156-.160156-.066406-.242187-.097656-20.496094-8.207031-43.757813-12.921875-65.621094-7.789063-23.449219 5.5-41.996094 21.332032-55.121094 47.042969-17.621094 34.523437-10.171875 62.597656-.816406 80.070313 15.738281 29.394531 47.347656 48.847656 73.722656 54.871093v67.207031c-60.453125-49.105468-72.578125-49.101562-78-49.101562-9.652344 0-17.679688 3.632812-25.25 7.808594zm197.484375-119.257813c-34.972656-31.324219-60.890625-46.550781-79.234375-46.550781-27.570312 0-50 22.429688-50 50 0 34.195312 35.40625 49.5 70.5 49.5h4v140.867188c-5.582031-4.847657-12.25-10.582032-19.5-16.695313v-92.171875c0-5.074219-3.804688-9.347656-8.84375-9.933594-22.039062-2.5625-53.09375-19.546875-67.246094-45.984375-1.292968-2.410156-2.417968-4.84375-3.375-7.300781-13.457031-34.480469 9.511719-82.28125 46.25-90.902344 16.761719-3.933594 35.414063.007813 51.199219 6.019532 15.984375 6.085937 31.371094 14.902343 45.203125 24.910156.074219.054687.148438.105468.21875.160156 8.867188 14.496094 17.0625 31.363281 24.746094 50.96875-4.375-4.175781-9.046875-8.523438-13.917969-12.886719zm0 0"/><path d="m242.730469 272.890625c-5.449219-.4375-10.335938 3.726563-10.769531 9.175781-.425782 5.386719 3.820312 10.320313 9.167968 10.761719 5.476563.40625 10.316406-3.691406 10.773438-9.167969.4375-5.488281-3.671875-10.332031-9.171875-10.769531zm0 0"/>
</g>
</svg>